<?xml version="1.0" encoding="utf-8"?>
<!-- Generator: Adobe Illustrator 25.2.1, SVG Export Plug-In . SVG Version: 6.00 Build 0)  -->
<svg version="1.1" id="Layer_1" xmlns="http://www.w3.org/2000/svg" xmlns:xlink="http://www.w3.org/1999/xlink" x="0px" y="0px"
	 viewBox="0 0 171 36" style="enable-background:new 0 0 171 36;" xml:space="preserve">
<style type="text/css">
	.st0{fill-rule:evenodd;clip-rule:evenodd;fill:url(#SVGID_1_);}
	.st1{fill:#FFFFFF;}
</style>
<linearGradient id="SVGID_1_" gradientUnits="userSpaceOnUse" x1="15" y1="33.6186" x2="15" y2="3.6186" gradientTransform="matrix(1 0 0 -1 0 36.5511)">
	<stop  offset="0" style="stop-color:#877EFF"/>
	<stop  offset="0.4615" style="stop-color:#685DFF"/>
	<stop  offset="1" style="stop-color:#3121FF"/>
</linearGradient>
<path class="st0" d="M27.8,17.9c0,7.1-5.7,12.8-12.8,12.8C7.9,30.8,2.2,25,2.2,17.9S7.9,5.1,15,5.1C22.1,5.1,27.8,10.8,27.8,17.9z
	 M30,17.9c0,8.3-6.7,15-15,15c-8.3,0-15-6.7-15-15c0-8.3,6.7-15,15-15C23.3,2.9,30,9.6,30,17.9z M23.3,11.2c0,0.9-0.7,1.6-1.6,1.6
	c-0.9,0-1.6-0.7-1.6-1.6s0.7-1.6,1.6-1.6C22.6,9.7,23.3,10.4,23.3,11.2z M10.5,19.1c0.7,2.5,3.2,4,5.7,3.3c2.5-0.7,4-3.2,3.3-5.7
	s-3.2-4-5.7-3.3S9.8,16.6,10.5,19.1z M8.4,19.7c1,3.6,4.7,5.8,8.4,4.8c3.6-1,5.8-4.7,4.8-8.4c-1-3.6-4.7-5.8-8.4-4.8
	C9.6,12.3,7.4,16.1,8.4,19.7z"/>
<path class="st1" d="M43.8,87.8c-1.5,0-2.9-0.3-4-0.8c-1.2-0.5-2.1-1.3-2.7-2.3c-0.7-1-1-2.2-1-3.7v-0.8h3.7v0.8
	c0,1.2,0.4,2.1,1.1,2.7c0.7,0.6,1.7,0.9,3,0.9c1.3,0,2.2-0.3,2.9-0.8c0.6-0.5,1-1.2,1-2c0-0.5-0.2-1-0.5-1.3
	c-0.3-0.3-0.8-0.6-1.4-0.8c-0.6-0.2-1.3-0.4-2.1-0.6L43,78.9c-1.4-0.3-2.5-0.7-3.5-1.1c-1-0.5-1.7-1.1-2.2-1.8
	c-0.5-0.8-0.8-1.7-0.8-2.9s0.3-2.2,0.8-3.1c0.6-0.9,1.4-1.5,2.4-2c1.1-0.5,2.3-0.7,3.7-0.7c1.4,0,2.7,0.2,3.8,0.7
	c1.1,0.5,2,1.2,2.6,2.1c0.6,0.9,1,2.1,1,3.6v0.8h-3.7v-0.8c0-0.8-0.2-1.4-0.5-1.8c-0.3-0.5-0.7-0.8-1.2-1c-0.5-0.2-1.2-0.3-2-0.3
	c-1.1,0-2,0.2-2.5,0.7c-0.5,0.4-0.8,1-0.8,1.7c0,0.5,0.1,0.9,0.4,1.2c0.3,0.3,0.7,0.6,1.2,0.8c0.5,0.2,1.2,0.4,2,0.6l0.7,0.1
	c1.4,0.3,2.6,0.7,3.7,1.2c1.1,0.5,1.9,1.1,2.5,1.9c0.6,0.8,0.9,1.8,0.9,3s-0.3,2.3-0.9,3.2c-0.6,0.9-1.5,1.6-2.6,2.1
	C46.7,87.5,45.4,87.8,43.8,87.8z M53.4,87.4v-14h3.5v1.8h0.5c0.2-0.5,0.7-1,1.3-1.4c0.6-0.5,1.6-0.7,2.8-0.7c1.1,0,2,0.3,2.9,0.8
	c0.8,0.5,1.5,1.2,1.9,2.1c0.5,0.9,0.7,1.9,0.7,3.1v8.4h-3.6v-8.1c0-1.1-0.3-1.8-0.8-2.4c-0.5-0.5-1.2-0.8-2.2-0.8
	c-1.1,0-1.9,0.4-2.5,1.1c-0.6,0.7-0.9,1.7-0.9,3v7.1H53.4z M74.3,87.8c-1,0-1.9-0.2-2.7-0.5c-0.8-0.4-1.4-0.9-1.9-1.5
	c-0.5-0.7-0.7-1.5-0.7-2.5c0-1,0.2-1.8,0.7-2.4c0.5-0.7,1.1-1.1,1.9-1.5c0.8-0.3,1.8-0.5,2.8-0.5h3.8v-0.8c0-0.7-0.2-1.2-0.6-1.6
	c-0.4-0.4-1.1-0.7-2-0.7c-0.9,0-1.5,0.2-2,0.6c-0.4,0.4-0.7,0.9-0.8,1.6l-3.3-1.1c0.2-0.7,0.6-1.4,1.1-2c0.5-0.6,1.2-1.1,2-1.4
	c0.8-0.4,1.9-0.6,3.1-0.6c1.8,0,3.3,0.5,4.4,1.4c1.1,0.9,1.6,2.3,1.6,4v5.2c0,0.6,0.3,0.8,0.8,0.8h1.1v2.9h-2.4
	c-0.7,0-1.3-0.2-1.7-0.5s-0.7-0.8-0.7-1.4v0h-0.5c-0.1,0.2-0.2,0.5-0.5,0.9c-0.3,0.4-0.7,0.7-1.2,1C76.1,87.6,75.3,87.8,74.3,87.8z
	 M74.9,84.9c1,0,1.8-0.3,2.4-0.8c0.6-0.6,1-1.3,1-2.2v-0.3h-3.6c-0.7,0-1.2,0.1-1.6,0.4c-0.4,0.3-0.6,0.7-0.6,1.2
	c0,0.5,0.2,0.9,0.6,1.2C73.6,84.7,74.2,84.9,74.9,84.9z M85.5,93V73.4H89V75h0.5c0.3-0.5,0.8-1,1.5-1.4c0.7-0.4,1.6-0.7,2.9-0.7
	c1.1,0,2.2,0.3,3.1,0.8c1,0.5,1.7,1.4,2.3,2.4c0.6,1.1,0.9,2.4,0.9,3.9v0.5c0,1.5-0.3,2.8-0.9,3.9C98.8,85.6,98,86.4,97,87
	c-1,0.5-2,0.8-3.1,0.8c-0.8,0-1.6-0.1-2.1-0.3c-0.6-0.2-1-0.4-1.4-0.7c-0.3-0.3-0.6-0.6-0.8-1H89V93H85.5z M92.8,84.7
	c1.1,0,2-0.3,2.7-1c0.7-0.7,1.1-1.8,1.1-3.1v-0.3c0-1.4-0.4-2.4-1.1-3.1c-0.7-0.7-1.6-1.1-2.7-1.1c-1.1,0-2,0.4-2.7,1.1
	c-0.7,0.7-1.1,1.7-1.1,3.1v0.3c0,1.4,0.4,2.4,1.1,3.1C90.8,84.3,91.7,84.7,92.8,84.7z M102,80.4V80c0-1.5,0.3-2.7,0.9-3.8
	c0.6-1.1,1.4-1.9,2.3-2.4c1-0.6,2-0.8,3.2-0.8c1.3,0,2.3,0.2,2.9,0.7c0.7,0.5,1.1,0.9,1.4,1.4h0.5v-1.7h3.5v16.5
	c0,1-0.3,1.7-0.8,2.3c-0.6,0.6-1.3,0.9-2.3,0.9h-9.4v-3.1h8.1c0.5,0,0.8-0.3,0.8-0.8v-3.6h-0.5c-0.2,0.3-0.5,0.6-0.8,0.9
	c-0.3,0.3-0.8,0.6-1.4,0.8c-0.6,0.2-1.3,0.3-2.1,0.3c-1.1,0-2.2-0.3-3.2-0.8c-1-0.6-1.7-1.4-2.3-2.4C102.3,83.2,102,81.9,102,80.4z
	 M109.4,84.3c1.1,0,2-0.3,2.7-1c0.7-0.7,1.1-1.7,1.1-2.9v-0.3c0-1.3-0.4-2.3-1.1-2.9c-0.7-0.7-1.6-1-2.7-1c-1.1,0-2,0.3-2.7,1
	c-0.7,0.7-1.1,1.7-1.1,2.9v0.3c0,1.3,0.4,2.2,1.1,2.9C107.4,84,108.3,84.3,109.4,84.3z M119.8,87.4v-14h3.5v1.6h0.5
	c0.2-0.6,0.5-1,1-1.2c0.5-0.3,1.1-0.4,1.7-0.4h1.7v3.2h-1.8c-0.9,0-1.6,0.2-2.2,0.7c-0.6,0.5-0.9,1.2-0.9,2.2v8H119.8z M134.2,87.8
	c-1,0-1.9-0.2-2.7-0.5c-0.8-0.4-1.4-0.9-1.9-1.5c-0.5-0.7-0.7-1.5-0.7-2.5c0-1,0.2-1.8,0.7-2.4c0.5-0.7,1.1-1.1,1.9-1.5
	c0.8-0.3,1.8-0.5,2.8-0.5h3.8v-0.8c0-0.7-0.2-1.2-0.6-1.6c-0.4-0.4-1.1-0.7-2-0.7c-0.9,0-1.5,0.2-2,0.6c-0.4,0.4-0.7,0.9-0.8,1.6
	l-3.3-1.1c0.2-0.7,0.6-1.4,1.1-2c0.5-0.6,1.2-1.1,2-1.4c0.8-0.4,1.9-0.6,3.1-0.6c1.8,0,3.3,0.5,4.4,1.4c1.1,0.9,1.6,2.3,1.6,4v5.2
	c0,0.6,0.3,0.8,0.8,0.8h1.1v2.9h-2.4c-0.7,0-1.3-0.2-1.7-0.5c-0.5-0.3-0.7-0.8-0.7-1.4v0h-0.5c-0.1,0.2-0.2,0.5-0.5,0.9
	c-0.3,0.4-0.7,0.7-1.2,1C136,87.6,135.2,87.8,134.2,87.8z M134.8,84.9c1,0,1.8-0.3,2.4-0.8c0.6-0.6,1-1.3,1-2.2v-0.3h-3.6
	c-0.7,0-1.2,0.1-1.6,0.4c-0.4,0.3-0.6,0.7-0.6,1.2c0,0.5,0.2,0.9,0.6,1.2C133.5,84.7,134.1,84.9,134.8,84.9z M145.3,87.4v-14h3.5
	v1.5h0.5c0.2-0.5,0.6-0.9,1.2-1.2c0.6-0.4,1.3-0.5,2.2-0.5c1,0,1.8,0.2,2.4,0.6c0.6,0.4,1.1,0.9,1.4,1.5h0.5
	c0.3-0.6,0.8-1.1,1.4-1.5c0.6-0.4,1.4-0.6,2.5-0.6c0.9,0,1.7,0.2,2.3,0.6c0.7,0.4,1.3,0.9,1.7,1.7c0.4,0.7,0.6,1.7,0.6,2.8v9.2h-3.6
	v-9c0-0.8-0.2-1.3-0.6-1.7c-0.4-0.4-1-0.6-1.7-0.6c-0.8,0-1.4,0.3-1.9,0.8c-0.4,0.5-0.7,1.2-0.7,2.2v8.3h-3.6v-9
	c0-0.8-0.2-1.3-0.6-1.7c-0.4-0.4-1-0.6-1.7-0.6c-0.8,0-1.4,0.3-1.9,0.8c-0.4,0.5-0.7,1.2-0.7,2.2v8.3H145.3z"/>
<g>
	<path class="st1" d="M43.1,8.9c0.8,0,1.3,0.2,1.7,0.6c0.4,0.4,2.1,2.1,5.1,5.1c3-3,4.7-4.7,5.1-5.1c0.4-0.4,0.9-0.6,1.7-0.6
		c1.5,0,2.3,0.8,2.3,2.3l0,13.6c0,1.5-0.8,2.3-2.3,2.3c-1.5,0-2.3-0.8-2.3-2.3v-8c-1.5,1.6-2.5,2.5-2.8,2.9
		c-0.4,0.4-0.9,0.6-1.7,0.6c-0.7,0-1.3-0.2-1.7-0.6c-0.4-0.4-1.3-1.3-2.8-2.9v8c0,1.5-0.8,2.2-2.3,2.3c-1.5,0-2.3-0.7-2.3-2.3V11.2
		C40.8,9.7,41.6,8.9,43.1,8.9z"/>
	<path class="st1" d="M63.5,8.9c0.8,0,1.3,0.2,1.7,0.6c0.4,0.4,1.7,1.9,4,4.7c2.3-2.8,3.7-4.4,4.1-4.8C73.7,9,74.2,8.8,75,8.8
		c0.7,0,1.3,0.2,1.7,0.6c0.4,0.4,0.6,1,0.6,1.7c0,0.8-0.4,1.5-1.2,2.2l-4.6,5.4l0,6c0,1.5-0.8,2.2-2.3,2.3c-1.5,0-2.2-0.7-2.2-2.3
		l0-6l-4.5-5.3c-0.8-0.7-1.2-1.5-1.2-2.3c0-0.8,0.2-1.3,0.6-1.7C62.2,9.1,62.7,8.9,63.5,8.9z"/>
	<path class="st1" d="M88.3,8.9l4.5,0c1.5,0,2.2,0.8,2.2,2.3c0,1.5-0.8,2.2-2.2,2.2l-4.5,0c-0.8,0-1.5,0.2-2.2,0.6
		c-0.7,0.4-1.3,0.9-1.7,1.7c-0.4,0.7-0.6,1.5-0.6,2.3c0,0.8,0.2,1.5,0.6,2.3c0.4,0.7,1,1.3,1.7,1.7c0.7,0.4,1.5,0.6,2.3,0.6
		c0.8,0,1.6-0.2,2.4-0.6s1.4-1,1.7-1.7h-1.9c-1.5,0-2.3-0.7-2.3-2.2c0-1.5,0.8-2.3,2.3-2.3l4.5,0c1.5,0,2.3,0.8,2.3,2.3
		c0,1.6-0.4,3.1-1.2,4.5c-0.8,1.4-1.9,2.6-3.4,3.3c-1.4,0.8-2.9,1.2-4.5,1.2c-1.6,0-3.1-0.4-4.5-1.2s-2.6-1.9-3.4-3.3
		c-0.8-1.4-1.2-2.9-1.2-4.5c0-1.6,0.4-3.1,1.2-4.5c0.8-1.5,1.9-2.6,3.4-3.3C85.3,9.3,86.8,8.9,88.3,8.9z"/>
	<path class="st1" d="M102,8.9h7.9c1.5,0,2.8,0.6,3.9,1.7c1.1,1.1,1.7,2.4,1.7,3.9c0,1.6-0.3,2.9-0.9,4c-0.6,1.1-1.4,1.6-2.6,1.7
		l2.8,2.8c0.4,0.4,0.7,1,0.7,1.8c0,1.5-0.8,2.3-2.3,2.3c-0.8,0-1.5-0.3-2.3-1.1l-4.5-5.6c-0.8-0.8-1.1-1.6-1.2-2.3
		c0-1.5,0.8-2.3,2.3-2.3l1.6,0c1.2,0,1.8-0.4,1.8-1.1c0-0.7-0.6-1.1-1.8-1.1h-1.6h-3.3v11.3c0,1.5-0.8,2.3-2.3,2.3
		c-1.5,0-2.3-0.7-2.3-2.2V11.2C99.7,9.7,100.4,8.9,102,8.9z"/>
	<path class="st1" d="M120.1,27c-0.4,0-0.8-0.1-1.1-0.3c-0.4-0.2-0.6-0.5-0.8-0.8c-0.2-0.4-0.3-0.7-0.3-1.1c0-0.4,1.1-2.9,3.4-7.4
		c2.3-4.5,3.5-7,3.7-7.3c0.2-0.4,0.5-0.6,0.8-0.8c0.4-0.2,0.7-0.3,1.1-0.3c0.4,0,0.8,0.1,1.1,0.3c0.4,0.2,0.6,0.5,0.8,0.8
		c0.2,0.4,1.4,2.8,3.7,7.3c2.3,4.5,3.4,7,3.4,7.4c0,0.4-0.1,0.8-0.3,1.1c-0.2,0.4-0.5,0.6-0.8,0.8c-0.4,0.2-0.7,0.3-1.1,0.3H120.1z
		 M129.9,22.5l-3.1-6.4l-3.1,6.4H129.9z"/>
	<path class="st1" d="M140.4,8.9c0.8,0,1.3,0.2,1.7,0.6c0.4,0.4,2.1,2.1,5.1,5.1c3-3,4.7-4.7,5.1-5.1c0.4-0.4,0.9-0.6,1.7-0.6
		c1.5,0,2.3,0.8,2.3,2.3l0,13.6c0,1.5-0.8,2.3-2.3,2.3c-1.5,0-2.3-0.8-2.3-2.3v-8c-1.5,1.6-2.5,2.5-2.8,2.9
		c-0.4,0.4-0.9,0.6-1.7,0.6c-0.7,0-1.3-0.2-1.7-0.6c-0.4-0.4-1.3-1.3-2.8-2.9v8c0,1.5-0.8,2.2-2.3,2.3c-1.5,0-2.3-0.7-2.3-2.3V11.2
		C138.2,9.7,138.9,8.9,140.4,8.9z"/>
</g>
</svg>
