<?xml version="1.0" encoding="utf-8"?>
<!-- Generator: Adobe Illustrator 25.2.1, SVG Export Plug-In . SVG Version: 6.00 Build 0)  -->
<svg version="1.1" id="Layer_1" xmlns="http://www.w3.org/2000/svg" xmlns:xlink="http://www.w3.org/1999/xlink" x="0px" y="0px"
	 viewBox="0 0 720 1024" style="enable-background:new 0 0 720 1024;" xml:space="preserve">
<style type="text/css">
	.st0{clip-path:url(#SVGID_2_);}
	.st1{fill:#09090A;}
	.st2{clip-path:url(#SVGID_4_);}
	.st3{clip-path:url(#SVGID_6_);}
	.st4{fill:#1B1B1F;}
	.st5{fill:none;}
	.st6{fill:url(#SVGID_7_);fill-opacity:0.7;}
	.st7{fill:#FFFFFF;}
	.st8{fill:#FFFFFF;fill-opacity:5.000000e-02;}
	.st9{clip-path:url(#SVGID_9_);}
	.st10{clip-path:url(#SVGID_11_);}
	.st11{clip-path:url(#SVGID_13_);}
	.st12{clip-path:url(#SVGID_15_);}
	.st13{clip-path:url(#SVGID_17_);}
	.st14{fill:url(#SVGID_18_);fill-opacity:0.7;}
	.st15{clip-path:url(#SVGID_20_);}
	.st16{fill:none;stroke:#FFFFFF;stroke-width:1.4383;stroke-linecap:round;stroke-linejoin:round;}
	.st17{clip-path:url(#SVGID_22_);}
	.st18{fill:#FAFAFA;}
	.st19{fill:none;stroke:#000000;stroke-width:0.7191;stroke-opacity:9.800000e-02;}
	.st20{clip-path:url(#SVGID_24_);}
	.st21{fill-rule:evenodd;clip-rule:evenodd;fill:#877EFF;}
	.st22{fill:#EFEFEF;}
	.st23{clip-path:url(#SVGID_26_);}
	.st24{fill:#877EFF;}
	.st25{clip-path:url(#SVGID_28_);}
	.st26{fill-rule:evenodd;clip-rule:evenodd;fill:#FFFFFF;}
</style>
<g>
	<defs>
		<rect id="SVGID_1_" y="0" width="720" height="1024"/>
	</defs>
	<clipPath id="SVGID_2_">
		<use xlink:href="#SVGID_1_"  style="overflow:visible;"/>
	</clipPath>
	<g class="st0">
		<rect y="0" class="st1" width="720" height="1024"/>
		<g>
			<defs>
				
					<rect id="SVGID_3_" x="-376" y="174.8" transform="matrix(0.1947 -0.9809 0.9809 0.1947 -294.2115 832.6957)" width="1472.1" height="841.4"/>
			</defs>
			<clipPath id="SVGID_4_">
				<use xlink:href="#SVGID_3_"  style="overflow:visible;"/>
			</clipPath>
			<g class="st2">
				<rect x="-376" y="174.8" transform="matrix(0.1947 -0.9809 0.9809 0.1947 -294.2115 832.6957)" width="1472.1" height="841.4"/>
				<g>
					<defs>
						<path id="SVGID_5_" d="M235.4,695.1l456.4,90.6c11.7,2.3,19.3,13.7,17,25.4l-41.6,209.5c-2.3,11.7-13.7,19.3-25.4,17
							l-456.4-90.6c-11.7-2.3-19.3-13.7-17-25.4L210,712C212.4,700.3,223.7,692.7,235.4,695.1z"/>
					</defs>
					<clipPath id="SVGID_6_">
						<use xlink:href="#SVGID_5_"  style="overflow:visible;"/>
					</clipPath>
					<g class="st3">
						<path class="st4" d="M235.4,695.1l456.4,90.6c11.7,2.3,19.3,13.7,17,25.4l-41.6,209.5c-2.3,11.7-13.7,19.3-25.4,17
							l-456.4-90.6c-11.7-2.3-19.3-13.7-17-25.4L210,712C212.4,700.3,223.7,692.7,235.4,695.1z"/>
						<path class="st5" d="M235.4,695.1l456.4,90.6c11.7,2.3,19.3,13.7,17,25.4l-41.6,209.5c-2.3,11.7-13.7,19.3-25.4,17
							l-456.4-90.6c-11.7-2.3-19.3-13.7-17-25.4L210,712C212.4,700.3,223.7,692.7,235.4,695.1z"/>
						
							<linearGradient id="SVGID_7_" gradientUnits="userSpaceOnUse" x1="483.4685" y1="346.9576" x2="483.4685" y2="51.3907" gradientTransform="matrix(0.9809 0.1947 0.1947 -0.9809 -78.1729 986.5491)">
							<stop  offset="0" style="stop-color:#000000;stop-opacity:0"/>
							<stop  offset="1" style="stop-color:#000000"/>
						</linearGradient>
						<polygon class="st6" points="214.2,690.9 712.9,789.8 655.4,1079.8 156.7,980.8 						"/>
						<path class="st7" d="M200.6,914.6c0-0.3-0.1-0.5-0.2-0.8c-0.1-0.2-0.2-0.4-0.4-0.6c-0.2-0.2-0.4-0.3-0.6-0.5
							c-0.2-0.1-0.5-0.2-0.8-0.3c-0.6-0.1-1.1-0.1-1.6,0.1c-0.5,0.2-0.9,0.6-1.3,1.1c-0.4,0.5-0.6,1.1-0.8,1.9
							c-0.2,0.8-0.2,1.5,0,2.1c0.1,0.6,0.4,1.1,0.8,1.5c0.4,0.4,0.9,0.6,1.5,0.7c0.5,0.1,1,0.1,1.4,0c0.4-0.1,0.8-0.3,1-0.6
							c0.3-0.3,0.5-0.7,0.6-1.2l0.5,0.2l-2.9-0.6l0.4-1.8l4.7,0.9l-0.3,1.4c-0.2,1-0.6,1.8-1.1,2.4c-0.6,0.6-1.2,1.1-2.1,1.3
							c-0.8,0.2-1.7,0.3-2.6,0.1c-1.1-0.2-1.9-0.6-2.6-1.3c-0.7-0.6-1.2-1.4-1.5-2.4c-0.3-1-0.3-2-0.1-3.2c0.2-0.9,0.5-1.7,0.9-2.4
							c0.4-0.7,0.9-1.2,1.5-1.6s1.2-0.7,1.9-0.8c0.7-0.1,1.4-0.1,2.2,0c0.6,0.1,1.2,0.3,1.7,0.6c0.5,0.3,1,0.7,1.3,1.1
							c0.4,0.4,0.6,0.9,0.8,1.4c0.2,0.5,0.3,1.1,0.2,1.6L200.6,914.6z M206.5,923.8c-0.9-0.2-1.6-0.5-2.1-1
							c-0.5-0.5-0.9-1.1-1.1-1.8c-0.2-0.7-0.2-1.5-0.1-2.4c0.2-0.9,0.5-1.6,1-2.2c0.5-0.6,1-1,1.7-1.2c0.7-0.2,1.5-0.3,2.3-0.1
							c0.9,0.2,1.6,0.5,2.1,1c0.6,0.5,0.9,1.1,1.1,1.8c0.2,0.7,0.2,1.5,0.1,2.4c-0.2,0.9-0.5,1.6-1,2.2c-0.5,0.6-1,1-1.7,1.2
							C208.1,924,207.3,924,206.5,923.8z M206.9,922c0.4,0.1,0.7,0,1-0.1c0.3-0.2,0.6-0.4,0.8-0.8c0.2-0.4,0.4-0.8,0.5-1.3
							c0.1-0.5,0.1-0.9,0.1-1.4c-0.1-0.4-0.2-0.8-0.4-1c-0.2-0.3-0.5-0.5-0.9-0.5c-0.4-0.1-0.7,0-1.1,0.1c-0.3,0.2-0.6,0.4-0.8,0.8
							c-0.2,0.4-0.4,0.8-0.5,1.3c-0.1,0.5-0.1,0.9-0.1,1.4c0.1,0.4,0.2,0.8,0.4,1C206.1,921.8,206.5,922,206.9,922z M218.2,926.2
							c-0.9-0.2-1.6-0.5-2.1-1c-0.5-0.5-0.9-1.1-1.1-1.8c-0.2-0.7-0.2-1.5-0.1-2.4c0.2-0.9,0.5-1.6,1-2.2c0.5-0.6,1-1,1.7-1.2
							c0.7-0.2,1.5-0.3,2.3-0.1c0.9,0.2,1.6,0.5,2.1,1c0.6,0.5,0.9,1.1,1.1,1.8c0.2,0.7,0.2,1.5,0.1,2.4c-0.2,0.9-0.5,1.6-1,2.2
							c-0.5,0.6-1,1-1.7,1.2C219.8,926.3,219,926.3,218.2,926.2z M218.5,924.3c0.4,0.1,0.7,0,1-0.1c0.3-0.2,0.6-0.4,0.8-0.8
							c0.2-0.4,0.4-0.8,0.5-1.3c0.1-0.5,0.1-0.9,0.1-1.4c-0.1-0.4-0.2-0.8-0.4-1c-0.2-0.3-0.5-0.5-0.9-0.5c-0.4-0.1-0.7,0-1.1,0.1
							c-0.3,0.2-0.6,0.4-0.8,0.8c-0.2,0.4-0.4,0.8-0.5,1.3c-0.1,0.5-0.1,0.9-0.1,1.4c0.1,0.4,0.2,0.8,0.4,1
							C217.8,924.1,218.2,924.3,218.5,924.3z M226.5,922.6l-1,4.9l-2.3-0.5l1.7-8.5l2.2,0.4l-0.3,1.5l0.1,0c0.3-0.5,0.7-0.8,1.2-1
							c0.5-0.2,1.1-0.2,1.7-0.1c0.6,0.1,1.1,0.3,1.5,0.7c0.4,0.3,0.7,0.8,0.8,1.3c0.1,0.5,0.2,1.1,0,1.8l-1.1,5.4l-2.3-0.5l1-5
							c0.1-0.5,0.1-0.9-0.2-1.3c-0.2-0.3-0.5-0.6-1-0.7c-0.3-0.1-0.6-0.1-0.9,0c-0.3,0.1-0.5,0.2-0.7,0.5
							C226.7,921.9,226.6,922.2,226.5,922.6z M237.4,930c-0.5-0.1-1-0.3-1.4-0.6c-0.4-0.3-0.7-0.6-0.8-1c-0.2-0.4-0.2-0.9-0.1-1.5
							c0.1-0.5,0.3-0.8,0.5-1.1c0.2-0.3,0.5-0.5,0.9-0.6c0.3-0.1,0.7-0.2,1.1-0.2c0.4,0,0.8,0,1.2,0c0.5,0,0.9,0.1,1.2,0.1
							c0.3,0,0.5,0,0.7-0.1c0.2-0.1,0.2-0.2,0.3-0.4l0,0c0.1-0.3,0-0.6-0.2-0.9c-0.2-0.2-0.5-0.4-0.9-0.5c-0.4-0.1-0.8-0.1-1.1,0.1
							c-0.3,0.1-0.5,0.3-0.6,0.6l-2.1-0.6c0.2-0.5,0.5-0.9,0.9-1.2c0.4-0.3,0.9-0.5,1.4-0.6c0.6-0.1,1.2-0.1,1.8,0
							c0.5,0.1,0.9,0.2,1.3,0.4c0.4,0.2,0.8,0.4,1,0.7c0.3,0.3,0.5,0.6,0.6,1.1c0.1,0.4,0.1,0.8,0,1.4l-1.1,5.7l-2.2-0.4l0.2-1.2
							l-0.1,0c-0.2,0.2-0.4,0.4-0.7,0.6c-0.3,0.2-0.6,0.3-0.9,0.3C238.2,930.1,237.8,930.1,237.4,930z M238.4,928.5
							c0.3,0.1,0.7,0.1,1,0c0.3-0.1,0.5-0.2,0.7-0.4c0.2-0.2,0.3-0.5,0.4-0.8l0.2-0.9c-0.1,0-0.2,0.1-0.3,0.1c-0.1,0-0.3,0-0.4,0
							c-0.2,0-0.3,0-0.5,0c-0.2,0-0.3,0-0.4,0c-0.3,0-0.5,0-0.8,0c-0.2,0-0.4,0.1-0.5,0.3c-0.1,0.1-0.2,0.3-0.3,0.5
							c-0.1,0.3,0,0.6,0.2,0.8C237.8,928.3,238,928.4,238.4,928.5z M252.4,924l-0.4,1.8l-5.1-1l0.4-1.8L252.4,924z M248.9,921.2
							l2.3,0.5l-1.6,7.9c0,0.2,0,0.4,0,0.5c0,0.1,0.1,0.2,0.2,0.3c0.1,0.1,0.2,0.1,0.4,0.2c0.1,0,0.2,0,0.3,0c0.1,0,0.2,0,0.3,0
							l0,1.8c-0.1,0-0.3,0-0.5,0c-0.2,0-0.5,0-0.8-0.1c-0.6-0.1-1.1-0.3-1.4-0.5c-0.4-0.3-0.7-0.6-0.8-1c-0.2-0.4-0.2-0.9-0.1-1.4
							L248.9,921.2z M251.5,932.6l1.7-8.5l2.3,0.5l-0.3,1.5l0.1,0c0.3-0.5,0.6-0.8,1-1c0.4-0.2,0.9-0.3,1.3-0.2
							c0.1,0,0.2,0.1,0.4,0.1c0.1,0,0.2,0.1,0.3,0.1l-0.4,2.1c-0.1-0.1-0.2-0.1-0.4-0.2c-0.2-0.1-0.4-0.1-0.5-0.1
							c-0.3-0.1-0.7-0.1-1,0c-0.3,0.1-0.6,0.3-0.8,0.5c-0.2,0.2-0.3,0.5-0.4,0.9l-1,4.8L251.5,932.6z M257.2,933.7l1.7-8.5l2.3,0.5
							l-1.7,8.5L257.2,933.7z M260.3,924.4c-0.3-0.1-0.6-0.2-0.8-0.5c-0.2-0.3-0.3-0.6-0.2-0.9c0.1-0.3,0.2-0.6,0.5-0.8
							c0.3-0.2,0.6-0.2,1-0.2c0.3,0.1,0.6,0.2,0.8,0.5c0.2,0.3,0.3,0.6,0.2,0.9c-0.1,0.3-0.2,0.6-0.5,0.8
							C260.9,924.4,260.6,924.5,260.3,924.4z M260.1,937.6l2.3-11.6l2.3,0.5l-0.3,1.4l0.1,0c0.1-0.2,0.3-0.4,0.6-0.6
							c0.2-0.2,0.5-0.3,0.9-0.4c0.4-0.1,0.8-0.1,1.2,0c0.6,0.1,1.2,0.4,1.6,0.8c0.5,0.4,0.8,1,1,1.7c0.2,0.7,0.2,1.5,0,2.5
							c-0.2,0.9-0.5,1.7-0.9,2.3c-0.4,0.6-0.9,1-1.5,1.2c-0.6,0.2-1.2,0.3-1.8,0.2c-0.5-0.1-0.8-0.2-1.1-0.5
							c-0.3-0.2-0.5-0.5-0.7-0.7c-0.2-0.3-0.3-0.5-0.3-0.8l-0.1,0l-0.9,4.5L260.1,937.6z M263.8,930.7c-0.1,0.5-0.1,1-0.1,1.4
							c0.1,0.4,0.2,0.7,0.4,1c0.2,0.3,0.5,0.4,0.9,0.5c0.4,0.1,0.7,0,1-0.1c0.3-0.2,0.6-0.4,0.8-0.8c0.2-0.3,0.4-0.8,0.5-1.3
							c0.1-0.5,0.1-0.9,0.1-1.3c-0.1-0.4-0.2-0.7-0.4-1s-0.5-0.4-0.9-0.5c-0.4-0.1-0.7,0-1,0.1c-0.3,0.1-0.6,0.4-0.8,0.7
							C264.1,929.7,263.9,930.2,263.8,930.7z M274.4,937.2l-0.6-8.9l2.4,0.5l0.2,5.9l0.1,0l2.5-5.4l2.3,0.5l0.3,5.9l0.1,0l2.4-5.4
							l2.4,0.5l-4,8l-2.5-0.5l-0.4-5.6l-0.1,0l-2.5,5L274.4,937.2z M285.2,939.3l1.7-8.5l2.3,0.5l-1.7,8.5L285.2,939.3z M288.3,930
							c-0.3-0.1-0.6-0.2-0.8-0.5c-0.2-0.3-0.3-0.6-0.2-0.9c0.1-0.3,0.2-0.6,0.5-0.8c0.3-0.2,0.6-0.2,1-0.2c0.3,0.1,0.6,0.2,0.8,0.5
							c0.2,0.3,0.3,0.6,0.2,0.9c-0.1,0.3-0.2,0.6-0.5,0.8C288.9,930,288.6,930,288.3,930z M294.9,932.4l-0.4,1.8l-5.1-1l0.4-1.8
							L294.9,932.4z M291.4,929.6l2.3,0.5l-1.6,7.9c0,0.2,0,0.4,0,0.5c0,0.1,0.1,0.2,0.2,0.3c0.1,0.1,0.2,0.1,0.4,0.2
							c0.1,0,0.2,0,0.3,0c0.1,0,0.2,0,0.3,0l0,1.8c-0.1,0-0.3,0-0.5,0c-0.2,0-0.5,0-0.8-0.1c-0.6-0.1-1.1-0.3-1.4-0.5
							c-0.4-0.3-0.7-0.6-0.8-1c-0.2-0.4-0.2-0.9-0.1-1.4L291.4,929.6z M297.6,936.7l-1,4.9l-2.3-0.5l2.2-11.3l2.3,0.5l-0.9,4.3
							l0.1,0c0.3-0.5,0.7-0.8,1.2-1c0.5-0.2,1-0.2,1.7-0.1c0.6,0.1,1.1,0.3,1.5,0.7c0.4,0.3,0.7,0.8,0.8,1.3c0.2,0.5,0.2,1.1,0,1.8
							l-1.1,5.4l-2.3-0.5l1-5c0.1-0.5,0.1-1-0.2-1.3c-0.2-0.3-0.5-0.6-1-0.7c-0.3-0.1-0.6-0.1-0.9,0c-0.3,0.1-0.5,0.2-0.7,0.5
							C297.8,936,297.6,936.3,297.6,936.7z M312.3,935.9l-0.4,1.8l-5.2-1l0.4-1.8L312.3,935.9z M306.6,943.5l1.8-9.1
							c0.1-0.6,0.3-1.1,0.7-1.5c0.3-0.4,0.7-0.6,1.2-0.7c0.5-0.1,1-0.1,1.5,0c0.4,0.1,0.7,0.2,1,0.3c0.3,0.1,0.5,0.2,0.6,0.3
							l-0.8,1.7c-0.1,0-0.2-0.1-0.3-0.1c-0.1-0.1-0.3-0.1-0.4-0.1c-0.3-0.1-0.6,0-0.8,0.1c-0.2,0.1-0.3,0.3-0.3,0.6l-1.8,9
							L306.6,943.5z M311.4,944.5l1.7-8.5l2.3,0.5L315,938l0.1,0c0.3-0.5,0.6-0.8,1-1c0.4-0.2,0.9-0.3,1.3-0.2
							c0.1,0,0.2,0.1,0.4,0.1c0.1,0,0.2,0.1,0.3,0.1l-0.4,2.1c-0.1-0.1-0.2-0.1-0.4-0.2c-0.2-0.1-0.4-0.1-0.5-0.1
							c-0.3-0.1-0.7-0.1-1,0c-0.3,0.1-0.6,0.3-0.8,0.5c-0.2,0.2-0.3,0.5-0.4,0.9l-1,4.8L311.4,944.5z M317,945.6l1.7-8.5l2.3,0.5
							l-1.7,8.5L317,945.6z M320.1,936.3c-0.3-0.1-0.6-0.2-0.8-0.5c-0.2-0.3-0.3-0.6-0.2-0.9c0.1-0.3,0.2-0.6,0.5-0.8
							c0.3-0.2,0.6-0.2,1-0.2c0.3,0.1,0.6,0.2,0.8,0.5c0.2,0.3,0.3,0.6,0.2,0.9c-0.1,0.3-0.2,0.6-0.5,0.8
							C320.8,936.3,320.4,936.4,320.1,936.3z M324.4,947.2c-0.9-0.2-1.6-0.5-2.1-1c-0.6-0.5-0.9-1.1-1.1-1.8c-0.2-0.7-0.2-1.5,0-2.4
							c0.2-0.9,0.5-1.6,1-2.2c0.5-0.6,1-1,1.7-1.3c0.7-0.2,1.5-0.3,2.3-0.1c0.6,0.1,1.1,0.3,1.5,0.6c0.4,0.3,0.8,0.6,1.1,1.1
							c0.3,0.4,0.5,0.9,0.6,1.5c0.1,0.6,0.1,1.2-0.1,1.9l-0.1,0.6l-7.1-1.4l0.3-1.5l4.9,1c0.1-0.3,0.1-0.7,0-0.9s-0.3-0.5-0.5-0.7
							c-0.2-0.2-0.5-0.3-0.9-0.4c-0.4-0.1-0.7-0.1-1,0.1c-0.3,0.1-0.6,0.3-0.8,0.5c-0.2,0.2-0.3,0.5-0.4,0.9l-0.3,1.4
							c-0.1,0.4-0.1,0.8,0,1.1c0.1,0.3,0.3,0.6,0.5,0.8c0.3,0.2,0.6,0.4,1,0.5c0.3,0.1,0.5,0.1,0.7,0c0.2,0,0.4-0.1,0.6-0.2
							c0.2-0.1,0.3-0.3,0.5-0.5l2.1,0.6c-0.2,0.5-0.5,0.9-0.9,1.2c-0.4,0.3-0.9,0.5-1.5,0.6C325.7,947.4,325.1,947.4,324.4,947.2z
							 M332.4,943.6l-1,4.9l-2.3-0.5l1.7-8.5l2.2,0.4l-0.3,1.5l0.1,0c0.3-0.5,0.7-0.8,1.2-1c0.5-0.2,1.1-0.2,1.7-0.1
							c0.6,0.1,1.1,0.3,1.5,0.7c0.4,0.3,0.7,0.8,0.8,1.3c0.1,0.5,0.2,1.1,0,1.8l-1.1,5.4l-2.3-0.5l1-5c0.1-0.5,0.1-0.9-0.2-1.3
							c-0.2-0.3-0.6-0.6-1-0.7c-0.3-0.1-0.6,0-0.9,0c-0.3,0.1-0.5,0.2-0.7,0.5C332.6,942.9,332.5,943.2,332.4,943.6z M341.2,950.5
							c-0.6-0.1-1.2-0.4-1.6-0.8c-0.5-0.4-0.8-1-0.9-1.7c-0.2-0.7-0.2-1.5,0-2.5c0.2-1,0.5-1.7,0.9-2.3c0.4-0.6,1-1,1.5-1.2
							c0.6-0.2,1.2-0.3,1.8-0.1c0.5,0.1,0.9,0.3,1.1,0.5c0.3,0.2,0.5,0.5,0.7,0.7c0.2,0.3,0.3,0.5,0.3,0.8l0.1,0l0.8-4.2l2.3,0.5
							l-2.2,11.3l-2.3-0.5l0.3-1.4l-0.1,0c-0.2,0.2-0.4,0.4-0.6,0.6c-0.2,0.2-0.5,0.3-0.9,0.4C342,950.6,341.6,950.6,341.2,950.5z
							 M342.3,948.8c0.4,0.1,0.7,0,1-0.1c0.3-0.2,0.6-0.4,0.8-0.8c0.2-0.3,0.4-0.8,0.5-1.3c0.1-0.5,0.1-1,0.1-1.4
							c-0.1-0.4-0.2-0.7-0.4-1c-0.2-0.3-0.5-0.4-0.9-0.5c-0.4-0.1-0.7,0-1,0.1s-0.6,0.4-0.8,0.8c-0.2,0.3-0.4,0.8-0.5,1.2
							c-0.1,0.5-0.1,0.9-0.1,1.3c0.1,0.4,0.2,0.7,0.4,1C341.6,948.6,341.9,948.8,342.3,948.8z M355.5,947l-2.2-0.3
							c0-0.2,0-0.4-0.1-0.5c-0.1-0.2-0.2-0.3-0.4-0.5c-0.2-0.1-0.4-0.2-0.7-0.3c-0.4-0.1-0.7-0.1-1,0c-0.3,0.1-0.4,0.3-0.5,0.5
							c0,0.2,0,0.4,0.1,0.6c0.1,0.2,0.4,0.3,0.8,0.5l1.5,0.6c0.8,0.3,1.3,0.7,1.7,1.2s0.4,1,0.3,1.6c-0.1,0.6-0.4,1-0.8,1.4
							c-0.4,0.4-0.9,0.6-1.5,0.7c-0.6,0.1-1.3,0.1-2,0c-1.1-0.2-2-0.6-2.5-1.2c-0.6-0.6-0.8-1.3-0.8-2.1l2.3,0.3
							c0,0.4,0.1,0.6,0.4,0.9c0.2,0.2,0.6,0.4,1,0.5c0.4,0.1,0.8,0.1,1,0c0.3-0.1,0.5-0.3,0.5-0.5c0-0.2,0-0.4-0.2-0.6
							c-0.1-0.2-0.4-0.3-0.8-0.5l-1.4-0.6c-0.8-0.3-1.4-0.7-1.7-1.2c-0.3-0.5-0.4-1-0.3-1.7c0.1-0.5,0.3-1,0.7-1.3
							c0.4-0.3,0.9-0.6,1.4-0.7c0.6-0.1,1.2-0.1,2,0.1c1.1,0.2,1.9,0.6,2.4,1.2C355.3,945.5,355.5,946.2,355.5,947z"/>
						<g>
							<path class="st8" d="M598.9,984.4l45.7,9.1c3.1,0.6,5.1,3.6,4.5,6.8l-2,9.9c-0.6,3.1-3.6,5.1-6.8,4.5l-45.7-9.1
								c-3.1-0.6-5.1-3.6-4.5-6.8l2-9.9C592.8,985.8,595.8,983.8,598.9,984.4z"/>
							<path class="st7" d="M603.5,993.5l0.6,5.2l0.1,0l2.6-4.5l1.2,0.2l-3.4,5.7l-1.4-0.3l-0.9-6.6L603.5,993.5z M607.5,1000.7
								l0.9-4.6l1.1,0.2l-0.9,4.6L607.5,1000.7z M609.1,995.6c-0.2,0-0.3-0.1-0.4-0.3c-0.1-0.1-0.1-0.3-0.1-0.5
								c0-0.2,0.1-0.3,0.3-0.4c0.1-0.1,0.3-0.1,0.5-0.1c0.2,0,0.3,0.1,0.4,0.3c0.1,0.1,0.1,0.3,0.1,0.5c0,0.2-0.1,0.3-0.3,0.4
								C609.4,995.6,609.3,995.6,609.1,995.6z M614,998.5l-1-0.1c0-0.1,0-0.2-0.1-0.3c0-0.1-0.1-0.2-0.2-0.3
								c-0.1-0.1-0.2-0.1-0.4-0.2c-0.2,0-0.4,0-0.6,0c-0.2,0.1-0.3,0.2-0.3,0.3c0,0.1,0,0.3,0.1,0.4c0.1,0.1,0.2,0.2,0.5,0.3
								l0.8,0.3c0.4,0.2,0.7,0.4,0.9,0.6c0.2,0.2,0.2,0.5,0.2,0.9c-0.1,0.3-0.2,0.5-0.4,0.7c-0.2,0.2-0.5,0.3-0.8,0.4
								c-0.3,0.1-0.7,0.1-1.1,0c-0.6-0.1-1-0.3-1.3-0.6c-0.3-0.3-0.4-0.7-0.4-1.1l1.1,0.1c0,0.2,0.1,0.4,0.2,0.5
								c0.1,0.1,0.3,0.2,0.6,0.3c0.3,0,0.5,0,0.7,0c0.2-0.1,0.3-0.2,0.3-0.3c0-0.1,0-0.2-0.1-0.4c-0.1-0.1-0.2-0.2-0.4-0.3l-0.8-0.3
								c-0.4-0.2-0.7-0.4-0.9-0.7c-0.2-0.3-0.2-0.6-0.1-0.9c0.1-0.3,0.2-0.5,0.4-0.7c0.2-0.2,0.5-0.3,0.8-0.4c0.3-0.1,0.6-0.1,1,0
								c0.5,0.1,0.9,0.3,1.2,0.6C613.9,997.7,614,998.1,614,998.5z M614.3,1002.1l0.9-4.6l1.1,0.2l-0.9,4.6L614.3,1002.1z
								 M615.9,996.9c-0.2,0-0.3-0.1-0.4-0.3c-0.1-0.1-0.1-0.3-0.1-0.5c0-0.2,0.1-0.3,0.3-0.4c0.1-0.1,0.3-0.1,0.5-0.1
								c0.2,0,0.3,0.1,0.4,0.3c0.1,0.1,0.1,0.3,0.1,0.5c0,0.2-0.1,0.3-0.3,0.4C616.3,996.9,616.1,997,615.9,996.9z M619.8,998.4
								l-0.2,0.8l-2.7-0.5l0.2-0.8L619.8,998.4z M618,996.9l1.1,0.2l-0.9,4.3c0,0.1,0,0.3,0,0.4c0,0.1,0.1,0.1,0.1,0.2
								c0.1,0,0.1,0.1,0.2,0.1c0.1,0,0.1,0,0.2,0c0.1,0,0.1,0,0.1,0l0,0.9c-0.1,0-0.1,0-0.3,0c-0.1,0-0.2,0-0.4,0
								c-0.3,0-0.5-0.1-0.7-0.3c-0.2-0.1-0.3-0.3-0.4-0.5c-0.1-0.2-0.1-0.5,0-0.8L618,996.9z M626.2,999.8c0-0.3-0.1-0.5-0.2-0.7
								c-0.2-0.2-0.4-0.3-0.8-0.4c-0.2,0-0.4-0.1-0.6,0c-0.2,0-0.3,0.1-0.4,0.2c-0.1,0.1-0.2,0.2-0.2,0.4c0,0.1,0,0.2,0,0.4
								c0,0.1,0.1,0.2,0.2,0.3c0.1,0.1,0.2,0.2,0.3,0.2c0.1,0.1,0.2,0.1,0.4,0.2l0.5,0.3c0.2,0.1,0.4,0.2,0.6,0.3
								c0.2,0.1,0.4,0.3,0.5,0.5c0.1,0.2,0.2,0.4,0.3,0.6c0.1,0.2,0.1,0.5,0,0.7c-0.1,0.4-0.2,0.7-0.5,0.9c-0.2,0.2-0.5,0.4-0.9,0.5
								c-0.4,0.1-0.8,0.1-1.3,0c-0.5-0.1-0.9-0.3-1.2-0.5c-0.3-0.2-0.6-0.5-0.7-0.8c-0.1-0.3-0.2-0.7-0.1-1.1l1.1,0.2
								c0,0.2,0,0.4,0.1,0.6c0.1,0.2,0.2,0.3,0.4,0.4c0.2,0.1,0.4,0.2,0.6,0.2c0.2,0,0.5,0.1,0.7,0c0.2,0,0.4-0.1,0.5-0.2
								s0.2-0.3,0.3-0.4c0-0.2,0-0.3-0.1-0.4c-0.1-0.1-0.2-0.2-0.3-0.3c-0.2-0.1-0.3-0.2-0.5-0.3l-0.7-0.3c-0.5-0.2-0.8-0.5-1.1-0.8
								c-0.2-0.3-0.3-0.7-0.2-1.1c0.1-0.4,0.2-0.7,0.5-0.9c0.3-0.2,0.6-0.4,0.9-0.5c0.4-0.1,0.8-0.1,1.2,0c0.4,0.1,0.8,0.2,1.1,0.5
								c0.3,0.2,0.5,0.5,0.7,0.8c0.1,0.3,0.2,0.6,0.1,1L626.2,999.8z M627.4,1004.7l0.9-4.6l1.1,0.2l-0.9,4.6L627.4,1004.7z
								 M629,999.5c-0.2,0-0.3-0.1-0.4-0.3c-0.1-0.1-0.1-0.3-0.1-0.5c0-0.2,0.1-0.3,0.3-0.4c0.1-0.1,0.3-0.1,0.5-0.1
								c0.2,0,0.3,0.1,0.4,0.3c0.1,0.1,0.1,0.3,0.1,0.5c0,0.2-0.1,0.3-0.3,0.4C629.3,999.5,629.1,999.5,629,999.5z M632.8,1000.9
								l-0.2,0.8l-2.7-0.5l0.2-0.8L632.8,1000.9z M631,999.4l1.1,0.2l-0.9,4.3c0,0.2,0,0.3,0,0.4c0,0.1,0.1,0.1,0.1,0.2
								c0.1,0,0.1,0.1,0.2,0.1c0.1,0,0.1,0,0.2,0c0.1,0,0.1,0,0.1,0l0,0.9c-0.1,0-0.1,0-0.3,0c-0.1,0-0.2,0-0.4,0
								c-0.3,0-0.5-0.1-0.7-0.3c-0.2-0.1-0.3-0.3-0.4-0.5c-0.1-0.2-0.1-0.5,0-0.8L631,999.4z M634.8,1006.2
								c-0.5-0.1-0.8-0.3-1.1-0.5c-0.3-0.3-0.5-0.6-0.6-1c-0.1-0.4-0.1-0.8,0-1.3c0.1-0.5,0.3-0.9,0.5-1.2c0.3-0.3,0.6-0.6,0.9-0.7
								c0.4-0.1,0.8-0.2,1.2-0.1c0.3,0.1,0.5,0.1,0.8,0.3c0.2,0.1,0.4,0.3,0.6,0.5c0.2,0.2,0.3,0.5,0.3,0.8s0,0.7,0,1.1l-0.1,0.3
								l-3.8-0.8l0.1-0.7l2.7,0.5c0-0.2,0-0.4,0-0.6c-0.1-0.2-0.2-0.3-0.3-0.5c-0.1-0.1-0.3-0.2-0.5-0.2c-0.2,0-0.4,0-0.6,0
								c-0.2,0.1-0.3,0.2-0.5,0.3c-0.1,0.2-0.2,0.3-0.3,0.5l-0.1,0.6c-0.1,0.3,0,0.5,0,0.7c0.1,0.2,0.2,0.4,0.3,0.5
								c0.2,0.1,0.4,0.2,0.6,0.3c0.2,0,0.3,0,0.4,0c0.1,0,0.3-0.1,0.4-0.1c0.1-0.1,0.2-0.2,0.3-0.3l1,0.3c-0.1,0.2-0.3,0.5-0.5,0.6
								c-0.2,0.2-0.5,0.3-0.8,0.3C635.5,1006.3,635.1,1006.3,634.8,1006.2z"/>
						</g>
						<g>
							<path class="st8" d="M236.8,717.3l55.2,11c3.1,0.6,5.1,3.6,4.5,6.8l-1.7,8.5c-0.6,3.1-3.6,5.1-6.8,4.5l-55.2-11
								c-3.1-0.6-5.1-3.6-4.5-6.8l1.7-8.5C230.7,718.8,233.7,716.7,236.8,717.3z"/>
							<path class="st7" d="M237.9,730.4l-1-0.2l2.8-4.8l1.1,0.2l0.8,5.5l-1-0.2l-0.6-4.4l0,0L237.9,730.4z M238.3,728.4l2.7,0.5
								l-0.1,0.7l-2.7-0.5L238.3,728.4z M243.6,731.6c-0.3-0.1-0.6-0.2-0.8-0.4c-0.2-0.2-0.4-0.5-0.4-0.8c-0.1-0.3-0.1-0.7,0-1.1
								c0.1-0.4,0.2-0.8,0.4-1c0.2-0.3,0.4-0.5,0.7-0.6c0.3-0.1,0.6-0.1,0.8-0.1c0.2,0,0.4,0.1,0.5,0.2c0.1,0.1,0.2,0.2,0.3,0.3
								c0.1,0.1,0.1,0.2,0.1,0.3l0,0l0.4-1.9l0.9,0.2l-1,5.1l-0.9-0.2l0.1-0.6l-0.1,0c-0.1,0.1-0.2,0.2-0.3,0.3
								c-0.1,0.1-0.2,0.2-0.4,0.2C244,731.6,243.8,731.6,243.6,731.6z M244,730.9c0.2,0,0.4,0,0.5-0.1c0.2-0.1,0.3-0.2,0.4-0.4
								c0.1-0.2,0.2-0.4,0.2-0.6c0.1-0.2,0.1-0.5,0-0.7c0-0.2-0.1-0.4-0.2-0.5c-0.1-0.1-0.3-0.2-0.5-0.3c-0.2,0-0.4,0-0.5,0.1
								c-0.2,0.1-0.3,0.2-0.4,0.4c-0.1,0.2-0.2,0.4-0.2,0.6c0,0.2-0.1,0.5,0,0.7c0,0.2,0.1,0.4,0.2,0.5
								C243.6,730.8,243.8,730.9,244,730.9z M250.8,729l-2.1,3.6l-1-0.2l-0.6-4.1l1,0.2l0.3,3l0,0l1.5-2.7L250.8,729z M252.2,733.3
								c-0.4-0.1-0.7-0.2-1-0.4c-0.2-0.2-0.4-0.5-0.5-0.8c-0.1-0.3-0.1-0.7,0-1.1c0.1-0.4,0.2-0.7,0.4-1c0.2-0.3,0.5-0.5,0.8-0.6
								c0.3-0.1,0.6-0.1,1-0.1c0.2,0,0.5,0.1,0.6,0.2c0.2,0.1,0.4,0.3,0.5,0.5c0.1,0.2,0.2,0.4,0.3,0.7c0,0.3,0,0.6,0,0.9l-0.1,0.3
								l-3.2-0.6l0.1-0.6l2.3,0.5c0-0.2,0-0.3,0-0.5c0-0.2-0.1-0.3-0.2-0.4c-0.1-0.1-0.3-0.2-0.4-0.2c-0.2,0-0.4,0-0.5,0
								c-0.2,0.1-0.3,0.2-0.4,0.3c-0.1,0.1-0.2,0.3-0.2,0.5l-0.1,0.5c0,0.2,0,0.4,0,0.6c0.1,0.2,0.1,0.3,0.3,0.4
								c0.1,0.1,0.3,0.2,0.5,0.2c0.1,0,0.3,0,0.4,0c0.1,0,0.2-0.1,0.3-0.1c0.1-0.1,0.2-0.1,0.2-0.2l0.8,0.3
								c-0.1,0.2-0.2,0.4-0.4,0.5c-0.2,0.1-0.4,0.2-0.6,0.3C252.8,733.4,252.5,733.4,252.2,733.3z M254.7,733.7l0.8-3.8l0.9,0.2
								l-0.1,0.6l0,0c0.1-0.2,0.3-0.4,0.5-0.4c0.2-0.1,0.4-0.1,0.6-0.1c0.1,0,0.1,0,0.2,0c0.1,0,0.1,0,0.2,0l-0.2,0.8
								c0,0-0.1,0-0.2-0.1c-0.1,0-0.2,0-0.2-0.1c-0.2,0-0.3,0-0.5,0c-0.1,0-0.3,0.1-0.4,0.2c-0.1,0.1-0.2,0.2-0.2,0.4l-0.4,2.3
								L254.7,733.7z M260.4,730.9l-0.1,0.7l-2.2-0.4l0.1-0.7L260.4,730.9z M258.9,729.6l0.9,0.2l-0.7,3.6c0,0.1,0,0.2,0,0.3
								c0,0.1,0.1,0.1,0.1,0.2c0.1,0,0.1,0.1,0.2,0.1c0.1,0,0.1,0,0.2,0c0.1,0,0.1,0,0.1,0l0,0.7c-0.1,0-0.1,0-0.2,0
								c-0.1,0-0.2,0-0.3,0c-0.2,0-0.4-0.1-0.6-0.2c-0.2-0.1-0.3-0.3-0.4-0.4c-0.1-0.2-0.1-0.4,0-0.6L258.9,729.6z M260.4,734.9
								l0.8-3.8l0.9,0.2l-0.8,3.8L260.4,734.9z M261.7,730.6c-0.1,0-0.3-0.1-0.3-0.2c-0.1-0.1-0.1-0.2-0.1-0.4
								c0-0.1,0.1-0.2,0.2-0.3c0.1-0.1,0.3-0.1,0.4-0.1c0.1,0,0.3,0.1,0.3,0.2c0.1,0.1,0.1,0.2,0.1,0.4c0,0.1-0.1,0.2-0.2,0.3
								C262,730.6,261.9,730.6,261.7,730.6z M265.8,733l-0.8-0.1c0-0.1,0-0.2-0.1-0.3c0-0.1-0.1-0.2-0.2-0.2
								c-0.1-0.1-0.2-0.1-0.3-0.1c-0.2,0-0.4,0-0.5,0c-0.1,0.1-0.2,0.1-0.3,0.3c0,0.1,0,0.2,0.1,0.3c0.1,0.1,0.2,0.2,0.4,0.3
								l0.6,0.3c0.3,0.2,0.6,0.3,0.7,0.5c0.1,0.2,0.2,0.4,0.1,0.7c0,0.2-0.2,0.4-0.3,0.6c-0.2,0.2-0.4,0.3-0.7,0.3
								c-0.3,0.1-0.6,0-0.9,0c-0.5-0.1-0.8-0.3-1.1-0.5c-0.2-0.3-0.4-0.6-0.3-0.9l0.9,0.1c0,0.2,0.1,0.3,0.2,0.4
								c0.1,0.1,0.3,0.2,0.5,0.2c0.2,0,0.4,0,0.5,0c0.1-0.1,0.2-0.2,0.3-0.3c0-0.1,0-0.2-0.1-0.3c-0.1-0.1-0.2-0.2-0.4-0.2l-0.6-0.3
								c-0.4-0.2-0.6-0.3-0.7-0.6c-0.1-0.2-0.2-0.5-0.1-0.7c0-0.2,0.1-0.4,0.3-0.6c0.2-0.1,0.4-0.2,0.6-0.3c0.3,0,0.5,0,0.8,0
								c0.5,0.1,0.8,0.3,1,0.5C265.7,732.4,265.8,732.7,265.8,733z M267.8,736.4c-0.4-0.1-0.7-0.2-1-0.4c-0.2-0.2-0.4-0.5-0.5-0.8
								c-0.1-0.3-0.1-0.7,0-1.1c0.1-0.4,0.2-0.7,0.4-1c0.2-0.3,0.5-0.5,0.8-0.6c0.3-0.1,0.6-0.1,1-0.1c0.2,0,0.5,0.1,0.6,0.2
								c0.2,0.1,0.4,0.3,0.5,0.5c0.1,0.2,0.2,0.4,0.3,0.7c0,0.3,0,0.6,0,0.9l-0.1,0.3l-3.2-0.6l0.1-0.6l2.3,0.5c0-0.2,0-0.3,0-0.5
								c0-0.2-0.1-0.3-0.2-0.4c-0.1-0.1-0.3-0.2-0.4-0.2c-0.2,0-0.4,0-0.5,0c-0.2,0.1-0.3,0.2-0.4,0.3c-0.1,0.1-0.2,0.3-0.2,0.5
								l-0.1,0.5c0,0.2,0,0.4,0,0.6c0,0.2,0.1,0.3,0.3,0.4c0.1,0.1,0.3,0.2,0.5,0.2c0.1,0,0.3,0,0.4,0c0.1,0,0.2-0.1,0.3-0.1
								c0.1-0.1,0.2-0.1,0.2-0.2l0.8,0.3c-0.1,0.2-0.2,0.4-0.4,0.5c-0.2,0.1-0.4,0.2-0.6,0.3C268.4,736.5,268.1,736.5,267.8,736.4z
								 M270.3,736.8l0.8-3.8l0.9,0.2l-0.1,0.7l0,0c0.1-0.2,0.3-0.4,0.5-0.4c0.2-0.1,0.4-0.1,0.7-0.1c0.3,0.1,0.5,0.2,0.6,0.3
								c0.2,0.2,0.2,0.4,0.3,0.6l0,0c0.1-0.2,0.3-0.3,0.5-0.4c0.2-0.1,0.5-0.1,0.8,0c0.4,0.1,0.6,0.2,0.8,0.5c0.2,0.3,0.2,0.6,0.1,1
								l-0.5,2.6l-0.9-0.2l0.5-2.4c0-0.2,0-0.4-0.1-0.6c-0.1-0.1-0.2-0.2-0.4-0.3c-0.2,0-0.4,0-0.6,0.1c-0.1,0.1-0.2,0.3-0.3,0.5
								l-0.5,2.4l-0.9-0.2l0.5-2.5c0-0.2,0-0.4-0.1-0.5c-0.1-0.1-0.2-0.2-0.4-0.3c-0.1,0-0.3,0-0.4,0c-0.1,0-0.2,0.1-0.3,0.2
								c-0.1,0.1-0.1,0.2-0.2,0.4l-0.5,2.3L270.3,736.8z M278.3,738.5c-0.4-0.1-0.7-0.2-1-0.4c-0.2-0.2-0.4-0.5-0.5-0.8
								c-0.1-0.3-0.1-0.7,0-1.1c0.1-0.4,0.2-0.7,0.4-1c0.2-0.3,0.5-0.5,0.8-0.6c0.3-0.1,0.6-0.1,1-0.1c0.2,0,0.5,0.1,0.6,0.2
								c0.2,0.1,0.4,0.3,0.5,0.5c0.1,0.2,0.2,0.4,0.3,0.7c0,0.3,0,0.6,0,0.9l-0.1,0.3l-3.2-0.6l0.1-0.6l2.3,0.5c0-0.2,0-0.3,0-0.5
								c0-0.2-0.1-0.3-0.2-0.4c-0.1-0.1-0.3-0.2-0.4-0.2c-0.2,0-0.4,0-0.5,0c-0.2,0.1-0.3,0.2-0.4,0.3c-0.1,0.1-0.2,0.3-0.2,0.4
								l-0.1,0.5c0,0.2,0,0.4,0,0.6c0,0.2,0.1,0.3,0.3,0.4c0.1,0.1,0.3,0.2,0.5,0.2c0.1,0,0.3,0,0.4,0c0.1,0,0.2-0.1,0.3-0.1
								c0.1-0.1,0.2-0.1,0.2-0.2l0.8,0.3c-0.1,0.2-0.2,0.4-0.4,0.5c-0.2,0.1-0.4,0.2-0.6,0.3C278.9,738.6,278.6,738.6,278.3,738.5z
								 M282.2,736.8l-0.4,2.3l-0.9-0.2l0.8-3.8l0.9,0.2l-0.1,0.7l0,0c0.1-0.2,0.3-0.3,0.5-0.4c0.2-0.1,0.5-0.1,0.8,0
								c0.3,0.1,0.5,0.2,0.7,0.3c0.2,0.2,0.3,0.3,0.4,0.6c0.1,0.2,0.1,0.5,0,0.8l-0.5,2.4l-0.9-0.2l0.5-2.3c0.1-0.3,0-0.5-0.1-0.6
								c-0.1-0.2-0.3-0.3-0.5-0.3c-0.2,0-0.3,0-0.4,0c-0.1,0-0.3,0.1-0.3,0.2C282.3,736.5,282.2,736.7,282.2,736.8z M287.8,736.3
								l-0.1,0.7l-2.2-0.4l0.1-0.7L287.8,736.3z M286.3,735l0.9,0.2l-0.7,3.6c0,0.1,0,0.2,0,0.3c0,0.1,0.1,0.1,0.1,0.2
								c0.1,0,0.1,0.1,0.2,0.1c0.1,0,0.1,0,0.2,0c0,0,0.1,0,0.1,0l0,0.7c-0.1,0-0.1,0-0.2,0c-0.1,0-0.2,0-0.3,0
								c-0.2,0-0.4-0.1-0.6-0.2c-0.2-0.1-0.3-0.3-0.4-0.4c-0.1-0.2-0.1-0.4,0-0.6L286.3,735z"/>
						</g>
					</g>
				</g>
				<g>
					<defs>
						<path id="SVGID_8_" d="M288.2,429.1l197.5,39.2c11.7,2.3,19.3,13.7,17,25.4l-41.6,209.5c-2.3,11.7-13.7,19.3-25.4,17
							L238.2,681c-11.7-2.3-19.3-13.7-17-25.4l41.6-209.5C265.1,434.4,276.5,426.8,288.2,429.1z"/>
					</defs>
					<clipPath id="SVGID_9_">
						<use xlink:href="#SVGID_8_"  style="overflow:visible;"/>
					</clipPath>
					<g class="st9">
						<path class="st4" d="M288.2,429.1l197.5,39.2c11.7,2.3,19.3,13.7,17,25.4l-41.6,209.5c-2.3,11.7-13.7,19.3-25.4,17L238.2,681
							c-11.7-2.3-19.3-13.7-17-25.4l41.6-209.5C265.1,434.4,276.5,426.8,288.2,429.1z"/>
						<path class="st5" d="M288.2,429.1l197.5,39.2c11.7,2.3,19.3,13.7,17,25.4l-41.6,209.5c-2.3,11.7-13.7,19.3-25.4,17L238.2,681
							c-11.7-2.3-19.3-13.7-17-25.4l41.6-209.5C265.1,434.4,276.5,426.8,288.2,429.1z"/>
						
							<rect x="191.5" y="400.2" transform="matrix(0.1947 -0.9809 0.9809 0.1947 -234.7542 797.7629)" class="st5" width="353.8" height="283.3"/>
					</g>
				</g>
				<path class="st4" d="M547.1,480.5l197.5,39.2c11.7,2.3,19.3,13.7,17,25.4l-41.6,209.5c-2.3,11.7-13.7,19.3-25.4,17l-197.5-39.2
					c-11.7-2.3-19.3-13.7-17-25.4l41.6-209.5C524,485.8,535.4,478.2,547.1,480.5z"/>
				<path class="st5" d="M547.1,480.5l197.5,39.2c11.7,2.3,19.3,13.7,17,25.4l-41.6,209.5c-2.3,11.7-13.7,19.3-25.4,17l-197.5-39.2
					c-11.7-2.3-19.3-13.7-17-25.4l41.6-209.5C524,485.8,535.4,478.2,547.1,480.5z"/>
				<path class="st4" d="M139.7-156.1l197.5,39.2c11.7,2.3,19.3,13.7,17,25.4L312.6,118c-2.3,11.7-13.7,19.3-25.4,17L89.7,95.7
					c-11.7-2.3-19.3-13.7-17-25.4l41.6-209.5C116.6-150.8,128-158.4,139.7-156.1z"/>
				<path class="st5" d="M139.7-156.1l197.5,39.2c11.7,2.3,19.3,13.7,17,25.4L312.6,118c-2.3,11.7-13.7,19.3-25.4,17L89.7,95.7
					c-11.7-2.3-19.3-13.7-17-25.4l41.6-209.5C116.6-150.8,128-158.4,139.7-156.1z"/>
				<g>
					<defs>
						<path id="SVGID_10_" d="M-72.6,913.3l197.5,39.2c11.7,2.3,19.3,13.7,17,25.4l-41.6,209.5c-2.3,11.7-13.7,19.3-25.4,17
							l-197.5-39.2c-11.7-2.3-19.3-13.7-17-25.4l41.6-209.5C-95.6,918.5-84.3,911-72.6,913.3z"/>
					</defs>
					<clipPath id="SVGID_11_">
						<use xlink:href="#SVGID_10_"  style="overflow:visible;"/>
					</clipPath>
					<g class="st10">
						<path class="st4" d="M-72.6,913.3l197.5,39.2c11.7,2.3,19.3,13.7,17,25.4l-41.6,209.5c-2.3,11.7-13.7,19.3-25.4,17
							l-197.5-39.2c-11.7-2.3-19.3-13.7-17-25.4l41.6-209.5C-95.6,918.5-84.3,911-72.6,913.3z"/>
						<path class="st5" d="M-72.6,913.3l197.5,39.2c11.7,2.3,19.3,13.7,17,25.4l-41.6,209.5c-2.3,11.7-13.7,19.3-25.4,17
							l-197.5-39.2c-11.7-2.3-19.3-13.7-17-25.4l41.6-209.5C-95.6,918.5-84.3,911-72.6,913.3z"/>
						
							<rect x="-156.4" y="960.5" transform="matrix(0.1947 -0.9809 0.9809 0.1947 -1064.9303 868.4509)" class="st5" width="305.6" height="244.5"/>
						<g>
							<defs>
								
									<rect id="SVGID_12_" x="107" y="968.4" transform="matrix(0.1947 -0.9809 0.9809 0.1947 -865.196 900.2498)" width="17.3" height="17.3"/>
							</defs>
							<clipPath id="SVGID_13_">
								<use xlink:href="#SVGID_12_"  style="overflow:visible;"/>
							</clipPath>
							<g class="st11">
								<path class="st7" d="M119.1,979.8l1.3-6.6c0.2-1-0.4-2-1.5-2.2l-6.6-1.3c-1-0.2-2,0.4-2.2,1.5l-1.3,6.6
									c-0.2,1,0.4,2,1.5,2.2l6.6,1.3C117.9,981.4,118.9,980.8,119.1,979.8z M121.6,974.9l-1.1,5.7c-0.3,1.6-1.9,2.6-3.5,2.3
									l-5.7-1.1c-0.2,0-0.4,0.2-0.3,0.4c0.3,0.5,0.7,0.8,1.3,0.9l4.7,0.9c2,0.4,4-0.9,4.4-2.9l0.9-4.7c0.1-0.6,0-1.1-0.3-1.6
									C122,974.6,121.7,974.7,121.6,974.9z"/>
							</g>
						</g>
					</g>
				</g>
				<path class="st4" d="M86.9,109.8L284.4,149c11.7,2.3,19.3,13.7,17,25.4l-41.6,209.5c-2.3,11.7-13.7,19.3-25.4,17L36.9,361.7
					c-11.7-2.3-19.3-13.7-17-25.4l41.6-209.5C63.8,115.1,75.2,107.5,86.9,109.8z"/>
				<path class="st5" d="M86.9,109.8L284.4,149c11.7,2.3,19.3,13.7,17,25.4l-41.6,209.5c-2.3,11.7-13.7,19.3-25.4,17L36.9,361.7
					c-11.7-2.3-19.3-13.7-17-25.4l41.6-209.5C63.8,115.1,75.2,107.5,86.9,109.8z"/>
				<g>
					<defs>
						<path id="SVGID_14_" d="M396.4-105.1l197.5,39.2c11.7,2.3,19.3,13.7,17,25.4l-41.6,209.5c-2.3,11.7-13.7,19.3-25.4,17
							l-197.5-39.2c-11.7-2.3-19.3-13.7-17-25.4l41.6-209.5C373.4-99.8,384.7-107.4,396.4-105.1z"/>
					</defs>
					<clipPath id="SVGID_15_">
						<use xlink:href="#SVGID_14_"  style="overflow:visible;"/>
					</clipPath>
					<g class="st12">
						<path class="st4" d="M396.4-105.1l197.5,39.2c11.7,2.3,19.3,13.7,17,25.4l-41.6,209.5c-2.3,11.7-13.7,19.3-25.4,17
							l-197.5-39.2c-11.7-2.3-19.3-13.7-17-25.4l41.6-209.5C373.4-99.8,384.7-107.4,396.4-105.1z"/>
						
							<rect x="307.2" y="-55.6" transform="matrix(0.1947 -0.9809 0.9809 0.1947 305.0363 519.1629)" class="st5" width="322.9" height="258.9"/>
					</g>
				</g>
				<path class="st4" d="M184.2,964.2l454.3,90.2c11.7,2.3,19.3,13.7,17,25.4L560.5,1558c-2.3,11.7-13.7,19.3-25.4,17l-454.3-90.2
					c-11.7-2.3-19.3-13.7-17-25.4l94.9-478.2C161.1,969.5,172.5,961.9,184.2,964.2z"/>
				<path class="st5" d="M184.2,964.2l454.3,90.2c11.7,2.3,19.3,13.7,17,25.4L560.5,1558c-2.3,11.7-13.7,19.3-25.4,17l-454.3-90.2
					c-11.7-2.3-19.3-13.7-17-25.4l94.9-478.2C161.1,969.5,172.5,961.9,184.2,964.2z"/>
				<g>
					<defs>
						<path id="SVGID_16_" d="M343.6,160.8L541.2,200c11.7,2.3,19.3,13.7,17,25.4l-41.6,209.5c-2.3,11.7-13.7,19.3-25.4,17
							l-197.5-39.2c-11.7-2.3-19.3-13.7-17-25.4l41.6-209.5C320.6,166.1,332,158.5,343.6,160.8z"/>
					</defs>
					<clipPath id="SVGID_17_">
						<use xlink:href="#SVGID_16_"  style="overflow:visible;"/>
					</clipPath>
					<g class="st13">
						<path class="st4" d="M343.6,160.8L541.2,200c11.7,2.3,19.3,13.7,17,25.4l-41.6,209.5c-2.3,11.7-13.7,19.3-25.4,17l-197.5-39.2
							c-11.7-2.3-19.3-13.7-17-25.4l41.6-209.5C320.6,166.1,332,158.5,343.6,160.8z"/>
						<path class="st5" d="M343.6,160.8L541.2,200c11.7,2.3,19.3,13.7,17,25.4l-41.6,209.5c-2.3,11.7-13.7,19.3-25.4,17l-197.5-39.2
							c-11.7-2.3-19.3-13.7-17-25.4l41.6-209.5C320.6,166.1,332,158.5,343.6,160.8z"/>
						
							<linearGradient id="SVGID_18_" gradientUnits="userSpaceOnUse" x1="459.749" y1="881.2156" x2="459.749" y2="624.4826" gradientTransform="matrix(0.9809 0.1947 0.1947 -0.9809 -180.1153 955.2525)">
							<stop  offset="0" style="stop-color:#000000;stop-opacity:0"/>
							<stop  offset="1" style="stop-color:#000000"/>
						</linearGradient>
						<polygon class="st14" points="322.5,156.6 562.3,204.2 512.3,456 272.5,408.4 						"/>
						<g>
							<defs>
								
									<rect id="SVGID_19_" x="462.4" y="341.7" transform="matrix(0.1947 -0.9809 0.9809 0.1947 35.6882 744.0913)" width="17.3" height="17.3"/>
							</defs>
							<clipPath id="SVGID_20_">
								<use xlink:href="#SVGID_19_"  style="overflow:visible;"/>
							</clipPath>
							<g class="st15">
								<path class="st16" d="M470.1,343.9l0.2-1.1 M467.1,344.4l-0.6-0.9 M466,350l-0.9,0.6 M472.7,345.6l0.9-0.6 M465.4,347
									l-1.1-0.2 M473.1,353.8l-2.4,2.9c-0.3,0.3-0.4,0.5-0.5,0.5c-0.1,0-0.2,0-0.3-0.1c-0.1-0.1-0.1-0.3-0.2-0.7l-0.9-8.4
									c0-0.4-0.1-0.5,0-0.6c0.1-0.1,0.1-0.2,0.3-0.2c0.1,0,0.3,0.1,0.6,0.2l7.4,4c0.4,0.2,0.6,0.3,0.6,0.4c0,0.1,0,0.2,0,0.3
									c-0.1,0.1-0.3,0.2-0.7,0.3l-3.6,1.1c-0.1,0-0.1,0-0.1,0C473.3,353.7,473.2,353.7,473.1,353.8
									C473.2,353.7,473.2,353.8,473.1,353.8z"/>
							</g>
						</g>
						<g>
							<defs>
								<path id="SVGID_21_" d="M308.4,375.2L308.4,375.2c5.8,1.2,9.6,6.8,8.5,12.7v0c-1.2,5.8-6.8,9.6-12.7,8.5h0
									c-5.8-1.2-9.6-6.8-8.5-12.7v0C296.9,377.9,302.6,374.1,308.4,375.2z"/>
							</defs>
							<clipPath id="SVGID_22_">
								<use xlink:href="#SVGID_21_"  style="overflow:visible;"/>
							</clipPath>
							<g class="st17">
								<path class="st18" d="M308.4,375.2L308.4,375.2c5.8,1.2,9.6,6.8,8.5,12.7l0,0c-1.2,5.8-6.8,9.6-12.7,8.5h0
									c-5.8-1.2-9.6-6.8-8.5-12.7v0C296.9,377.9,302.6,374.1,308.4,375.2z"/>
								
									<rect x="295.5" y="375" transform="matrix(0.1947 -0.9809 0.9809 0.1947 -131.748 611.1534)" class="st5" width="21.6" height="21.6"/>
								<path class="st5" d="M308.4,375.2L308.4,375.2c5.8,1.2,9.6,6.8,8.5,12.7l0,0c-1.2,5.8-6.8,9.6-12.7,8.5h0
									c-5.8-1.2-9.6-6.8-8.5-12.7v0C296.9,377.9,302.6,374.1,308.4,375.2z"/>
								<path class="st19" d="M308.3,375.6L308.3,375.6c5.6,1.1,9.3,6.6,8.2,12.3l0,0c-1.1,5.6-6.6,9.3-12.3,8.2l0,0
									c-5.6-1.1-9.3-6.6-8.2-12.3l0,0C297.2,378.1,302.7,374.5,308.3,375.6z"/>
							</g>
						</g>
						<g>
							<defs>
								<path id="SVGID_23_" d="M438,405.3l5.6,1.1c1.9,0.4,3.2,2.3,2.8,4.2l-1.1,5.6c-0.4,1.9-2.3,3.2-4.2,2.8l-5.6-1.1
									c-1.9-0.4-3.2-2.3-2.8-4.2l1.1-5.6C434.1,406.2,436,405,438,405.3z"/>
							</defs>
							<clipPath id="SVGID_24_">
								<use xlink:href="#SVGID_23_"  style="overflow:visible;"/>
							</clipPath>
							<g class="st20">
								<path class="st21" d="M436.6,407c-1.1,0.3-2,1.2-2.2,2.4c-0.3,1.3,0.1,2.4,0.7,3.4c0.5,0.8,1.1,1.6,1.8,2.3
									c0.1,0.2,0.3,0.3,0.4,0.5c0.3,0.3,0.5,0.6,0.7,0.8c0.2,0.2,0.4,0.3,0.6,0.4c0.2,0,0.4,0,0.7-0.1c0.3-0.1,0.6-0.3,1-0.4
									c0.2-0.1,0.4-0.2,0.6-0.3c0.9-0.4,1.7-0.9,2.5-1.4c0.9-0.7,1.7-1.6,1.9-2.9c0.3-1.3-0.3-2.5-1.1-3.1
									c-0.9-0.6-2.2-0.8-3.6,0.3c-0.1,0.1-0.2,0.1-0.3,0.1c-0.1,0-0.2-0.1-0.3-0.2C438.9,407.1,437.7,406.7,436.6,407z
									 M440.4,407.7c-1.1-1.5-2.6-2-4-1.6c-1.4,0.3-2.6,1.5-2.9,3.1c-0.3,1.6,0.1,2.9,0.8,4c0.5,0.9,1.2,1.7,1.9,2.4
									c0.1,0.2,0.3,0.3,0.4,0.5c0.3,0.3,0.5,0.6,0.8,0.9c0.3,0.3,0.6,0.5,1,0.6c0.4,0.1,0.8,0,1.2-0.1c0.4-0.1,0.7-0.3,1.1-0.5
									c0.2-0.1,0.4-0.2,0.6-0.3c0.9-0.4,1.8-0.9,2.7-1.5c1-0.8,1.9-1.9,2.2-3.4c0.3-1.6-0.3-3.2-1.5-4
									C443.5,406.9,442,406.8,440.4,407.7z"/>
							</g>
						</g>
						<path class="st22" d="M452.3,411.4l-1.2,6.2l-0.9-0.2l1-5.2l0,0l-1.7,0.7l0.2-0.9l1.7-0.7L452.3,411.4z M452.7,417.9l0.1-0.7
							l2.5-1.7c0.3-0.2,0.5-0.4,0.7-0.5c0.2-0.1,0.3-0.3,0.4-0.4s0.2-0.3,0.2-0.5c0-0.2,0-0.4,0-0.6c-0.1-0.2-0.2-0.3-0.3-0.4
							c-0.1-0.1-0.3-0.2-0.5-0.2c-0.2,0-0.4,0-0.6,0c-0.2,0.1-0.3,0.2-0.5,0.3c-0.1,0.1-0.2,0.3-0.2,0.6l-0.9-0.2
							c0.1-0.4,0.2-0.7,0.5-0.9s0.5-0.4,0.8-0.5c0.3-0.1,0.7-0.1,1.1,0c0.4,0.1,0.7,0.2,1,0.4c0.3,0.2,0.5,0.5,0.6,0.8
							c0.1,0.3,0.1,0.6,0.1,0.9c0,0.2-0.1,0.4-0.3,0.6c-0.1,0.2-0.3,0.4-0.6,0.6c-0.3,0.2-0.6,0.5-1.1,0.8l-1.5,1l0,0l2.8,0.6
							l-0.2,0.8L452.7,417.9z M460,419.5c-0.5-0.1-0.9-0.3-1.1-0.6c-0.3-0.3-0.5-0.7-0.6-1.2c-0.1-0.5-0.1-1.1,0.1-1.8
							c0.1-0.7,0.3-1.2,0.6-1.7c0.3-0.4,0.6-0.7,1-0.9c0.4-0.2,0.8-0.2,1.3-0.1c0.5,0.1,0.9,0.3,1.1,0.6c0.3,0.3,0.5,0.7,0.6,1.2
							c0.1,0.5,0.1,1.1-0.1,1.8c-0.1,0.7-0.3,1.2-0.6,1.7c-0.3,0.4-0.6,0.7-1,0.9C460.9,419.5,460.5,419.6,460,419.5z M460.2,418.7
							c0.4,0.1,0.8-0.1,1.1-0.4c0.3-0.4,0.6-0.9,0.7-1.7c0.1-0.5,0.1-1,0.1-1.3c0-0.4-0.1-0.7-0.3-0.9c-0.2-0.2-0.4-0.4-0.7-0.4
							c-0.4-0.1-0.8,0.1-1.1,0.4c-0.3,0.4-0.6,0.9-0.7,1.7c-0.1,0.5-0.1,1-0.1,1.3c0,0.4,0.1,0.7,0.3,0.9
							C459.7,418.5,459.9,418.6,460.2,418.7z"/>
						<g>
							<defs>
								
									<rect id="SVGID_25_" x="473.9" y="413.9" transform="matrix(0.1947 -0.9809 0.9809 0.1947 -25.4876 809.6593)" width="12.9" height="12.9"/>
							</defs>
							<clipPath id="SVGID_26_">
								<use xlink:href="#SVGID_25_"  style="overflow:visible;"/>
							</clipPath>
							<g class="st23">
								<path class="st24" d="M478.5,420c-0.1,0.3-0.4,0.5-0.7,0.5c-0.3-0.1-0.5-0.4-0.5-0.7c0.1-0.3,0.4-0.5,0.7-0.5
									C478.4,419.3,478.6,419.6,478.5,420z"/>
								<path class="st24" d="M480.9,420.4c-0.1,0.3-0.4,0.5-0.7,0.5c-0.3-0.1-0.5-0.4-0.5-0.7c0.1-0.3,0.4-0.5,0.7-0.5
									C480.8,419.8,481,420.1,480.9,420.4z"/>
								<path class="st24" d="M483.3,420.9c-0.1,0.3-0.4,0.5-0.7,0.5c-0.3-0.1-0.5-0.4-0.5-0.7c0.1-0.3,0.4-0.5,0.7-0.5
									C483.1,420.3,483.3,420.6,483.3,420.9z"/>
								<path class="st21" d="M486.6,421.6c0.7-3.5-1.6-6.9-5.1-7.6c-3.5-0.7-6.9,1.6-7.6,5.1c-0.2,1-0.2,2,0.1,2.9
									c0,0.1,0,0.3,0,0.4l-0.6,1.2c-0.4,0.8,0.2,1.8,1.2,1.8l1.4-0.1c0.1,0,0.2,0,0.4,0.1c0.8,0.6,1.7,1,2.7,1.2
									C482.5,427.3,485.9,425.1,486.6,421.6z M481.4,414.9c3,0.6,5,3.5,4.4,6.5c-0.6,3-3.5,5-6.5,4.4c-0.9-0.2-1.7-0.5-2.3-1
									c-0.3-0.2-0.6-0.3-1-0.3l-1.4,0.1c-0.3,0-0.4-0.2-0.3-0.5l0.6-1.2c0.2-0.3,0.2-0.7,0.1-1c-0.2-0.8-0.3-1.7-0.1-2.5
									C475.5,416.2,478.4,414.3,481.4,414.9z"/>
							</g>
						</g>
						<path class="st22" d="M491.6,425.7c-0.3-0.1-0.5-0.2-0.8-0.3c-0.2-0.1-0.5-0.4-0.6-0.6c-0.2-0.3-0.3-0.6-0.3-1
							c-0.1-0.4,0-0.9,0.1-1.5c0.1-0.5,0.3-1,0.4-1.4c0.2-0.4,0.4-0.7,0.7-1c0.3-0.2,0.5-0.4,0.9-0.5c0.3-0.1,0.7-0.1,1,0
							c0.4,0.1,0.7,0.2,0.9,0.4c0.3,0.2,0.4,0.4,0.6,0.7c0.1,0.3,0.2,0.6,0.2,0.9l-0.9-0.2c0-0.3-0.1-0.5-0.2-0.7
							c-0.2-0.2-0.4-0.3-0.7-0.4c-0.5-0.1-0.8,0-1.2,0.4c-0.3,0.3-0.6,0.9-0.7,1.6l0,0c0.1-0.2,0.3-0.3,0.5-0.4
							c0.2-0.1,0.4-0.2,0.6-0.2c0.2,0,0.4,0,0.6,0c0.4,0.1,0.7,0.2,0.9,0.5c0.3,0.2,0.4,0.5,0.6,0.9s0.1,0.7,0.1,1.1
							c-0.1,0.4-0.2,0.7-0.5,1c-0.2,0.3-0.5,0.5-0.9,0.6C492.5,425.8,492.1,425.8,491.6,425.7z M491.8,425c0.2,0,0.5,0,0.7,0
							c0.2-0.1,0.4-0.2,0.5-0.4c0.1-0.2,0.2-0.4,0.3-0.6c0-0.2,0-0.5,0-0.7c-0.1-0.2-0.2-0.4-0.3-0.5c-0.2-0.2-0.4-0.2-0.6-0.3
							c-0.2,0-0.4,0-0.5,0c-0.2,0-0.3,0.1-0.5,0.2c-0.1,0.1-0.3,0.2-0.4,0.4c-0.1,0.1-0.2,0.3-0.2,0.5c0,0.2,0,0.5,0,0.7
							c0.1,0.2,0.2,0.4,0.3,0.6C491.4,424.8,491.6,424.9,491.8,425z M497,426.8c-0.4-0.1-0.8-0.2-1.1-0.4c-0.3-0.2-0.5-0.5-0.7-0.8
							c-0.1-0.3-0.2-0.6-0.1-0.9c0.1-0.3,0.2-0.5,0.3-0.7c0.2-0.2,0.3-0.4,0.6-0.5c0.2-0.1,0.4-0.2,0.7-0.2l0,0
							c-0.3-0.1-0.5-0.3-0.6-0.6c-0.1-0.3-0.2-0.6-0.1-0.9c0.1-0.3,0.2-0.6,0.4-0.8c0.2-0.2,0.5-0.4,0.8-0.4c0.3-0.1,0.7-0.1,1.1,0
							c0.4,0.1,0.7,0.2,1,0.4c0.3,0.2,0.5,0.4,0.6,0.7c0.1,0.3,0.2,0.6,0.1,0.9c-0.1,0.3-0.2,0.6-0.5,0.8c-0.2,0.2-0.5,0.3-0.8,0.3
							l0,0c0.2,0.1,0.4,0.2,0.6,0.4c0.2,0.2,0.3,0.4,0.3,0.6c0.1,0.2,0.1,0.5,0,0.8c-0.1,0.3-0.2,0.6-0.5,0.8
							c-0.2,0.2-0.5,0.4-0.9,0.5C497.8,426.9,497.4,426.9,497,426.8z M497.1,426c0.3,0.1,0.5,0.1,0.7,0c0.2,0,0.4-0.1,0.5-0.3
							c0.1-0.1,0.2-0.3,0.3-0.5c0-0.2,0-0.4-0.1-0.6c-0.1-0.2-0.2-0.3-0.4-0.5c-0.2-0.1-0.4-0.2-0.6-0.3c-0.2,0-0.5,0-0.7,0
							s-0.4,0.2-0.5,0.3c-0.1,0.1-0.2,0.3-0.3,0.5c0,0.2,0,0.4,0,0.6c0.1,0.2,0.2,0.3,0.4,0.4C496.6,425.9,496.9,426,497.1,426z
							 M497.7,423.2c0.2,0,0.4,0,0.6,0c0.2-0.1,0.3-0.1,0.4-0.3c0.1-0.1,0.2-0.3,0.2-0.5c0-0.2,0-0.4,0-0.5
							c-0.1-0.2-0.2-0.3-0.3-0.4c-0.1-0.1-0.3-0.2-0.5-0.2c-0.2,0-0.4,0-0.6,0c-0.2,0-0.3,0.1-0.4,0.3c-0.1,0.1-0.2,0.3-0.2,0.5
							c0,0.2,0,0.4,0,0.5s0.2,0.3,0.3,0.4C497.3,423.1,497.5,423.1,497.7,423.2z"/>
					</g>
				</g>
				<path class="st4" d="M653.2-54.2L850.7-15c11.7,2.3,19.3,13.7,17,25.4l-94.4,475.4c-2.3,11.7-13.7,19.3-25.4,17l-197.5-39.2
					c-11.7-2.3-19.3-13.7-17-25.4l94.4-475.4C630.1-48.9,641.5-56.5,653.2-54.2z"/>
				<path class="st5" d="M653.2-54.2L850.7-15c11.7,2.3,19.3,13.7,17,25.4l-94.4,475.4c-2.3,11.7-13.7,19.3-25.4,17l-197.5-39.2
					c-11.7-2.3-19.3-13.7-17-25.4l94.4-475.4C630.1-48.9,641.5-56.5,653.2-54.2z"/>
				<path class="st4" d="M31.4,378.2l197.5,39.2c11.7,2.3,19.3,13.7,17,25.4l-94.4,475.4c-2.3,11.7-13.7,19.3-25.4,17l-197.5-39.2
					c-11.7-2.3-19.3-13.7-17-25.4L6.1,395.1C8.4,383.4,19.7,375.9,31.4,378.2z"/>
				<path class="st5" d="M31.4,378.2l197.5,39.2c11.7,2.3,19.3,13.7,17,25.4l-94.4,475.4c-2.3,11.7-13.7,19.3-25.4,17l-197.5-39.2
					c-11.7-2.3-19.3-13.7-17-25.4L6.1,395.1C8.4,383.4,19.7,375.9,31.4,378.2z"/>
				<g>
					<defs>
						
							<rect id="SVGID_27_" x="211" y="433.3" transform="matrix(0.1947 -0.9809 0.9809 0.1947 -256.5755 571.348)" width="17.3" height="17.3"/>
					</defs>
					<clipPath id="SVGID_28_">
						<use xlink:href="#SVGID_27_"  style="overflow:visible;"/>
					</clipPath>
					<g class="st25">
						<path class="st26" d="M221.1,434.3L221.1,434.3c1.7,0.3,3,0.6,4,0.9c1,0.3,1.7,0.8,2.2,1.5c0.5,0.8,0.6,1.6,0.6,2.7
							c-0.1,1-0.3,2.3-0.6,3.9l0,0.1c-0.3,1.6-0.6,2.9-0.9,3.9c-0.3,1-0.8,1.7-1.5,2.2c-0.8,0.5-1.6,0.6-2.7,0.6
							c-1-0.1-2.3-0.3-3.9-0.6l-0.1,0c-1.6-0.3-2.9-0.6-3.9-0.9c-1-0.3-1.7-0.8-2.2-1.5c-0.5-0.8-0.6-1.6-0.6-2.7
							c0.1-1,0.3-2.3,0.6-3.9l0-0.1c0.3-1.6,0.6-2.9,0.9-3.9c0.3-1,0.8-1.7,1.5-2.2c0.8-0.5,1.6-0.6,2.7-0.6
							C218.2,433.8,219.5,434,221.1,434.3z M217.1,434.8c-0.9-0.1-1.5,0.1-2,0.4c-0.5,0.3-0.8,0.8-1.1,1.7c0,0.1-0.1,0.3-0.1,0.4
							l2.6,0.5l2.6-2.8C218.4,434.9,217.7,434.8,217.1,434.8z M220.4,435.3C220.4,435.3,220.4,435.4,220.4,435.3l-2.6,2.8l3.3,0.7
							l2.6-2.7c-0.7-0.2-1.6-0.4-2.8-0.6C220.8,435.4,220.6,435.3,220.4,435.3z M224.9,436.3l-2.5,2.6l4.4,0.9c0-0.2,0-0.3,0-0.5
							c0.1-0.9-0.1-1.5-0.4-2C226.1,436.9,225.7,436.6,224.9,436.3z M226.6,440.9l-5.4-1.1c0,0,0,0,0,0l-4.6-0.9c0,0,0,0,0,0l-3-0.6
							c-0.1,0.6-0.3,1.4-0.5,2.3c-0.3,1.7-0.6,2.9-0.6,3.8c-0.1,0.9,0.1,1.5,0.4,2c0.3,0.5,0.8,0.8,1.7,1.1c0.9,0.3,2.1,0.5,3.8,0.9
							c1.7,0.3,2.9,0.6,3.8,0.6c0.9,0.1,1.5-0.1,2-0.4c0.5-0.3,0.8-0.8,1.1-1.7c0.3-0.9,0.5-2.1,0.9-3.8
							C226.4,442.3,226.5,441.6,226.6,440.9z M220.6,442.1L220.6,442.1c0.4,0.4,0.8,0.7,1,1c0.2,0.3,0.4,0.7,0.3,1.1
							c-0.1,0.4-0.4,0.7-0.7,0.9c-0.3,0.2-0.7,0.4-1.2,0.5l-0.1,0c-0.5,0.2-0.9,0.4-1.3,0.4c-0.4,0.1-0.8,0.1-1.2-0.2
							c-0.3-0.3-0.4-0.8-0.3-1.1c0-0.4,0.1-0.9,0.2-1.4l0-0.1c0.1-0.6,0.2-1.1,0.3-1.4c0.1-0.4,0.3-0.8,0.8-0.9
							c0.5-0.2,0.9,0,1.2,0.2C219.9,441.4,220.3,441.7,220.6,442.1z M218.8,441.9C218.8,441.9,218.8,441.9,218.8,441.9
							C218.8,441.9,218.8,441.9,218.8,441.9z M218.8,442c0,0,0.1,0,0.2,0.1c0.2,0.2,0.5,0.4,0.9,0.8c0.4,0.4,0.7,0.7,0.9,0.9
							c0.1,0.2,0.1,0.2,0.1,0.3c0,0,0,0.1-0.2,0.2c-0.2,0.1-0.6,0.3-1.1,0.5c-0.6,0.2-0.9,0.4-1.2,0.4c-0.1,0-0.2,0-0.2,0
							c0,0,0-0.1,0-0.3c0-0.3,0.1-0.7,0.2-1.3c0.1-0.6,0.2-1,0.3-1.3C218.8,442,218.8,442,218.8,442z M218.2,445.1
							C218.2,445.1,218.2,445.1,218.2,445.1C218.2,445.1,218.2,445.1,218.2,445.1z M218.2,445.1
							C218.2,445.1,218.2,445.1,218.2,445.1C218.2,445.1,218.2,445.1,218.2,445.1z M218.9,441.9
							C218.9,441.9,218.9,441.9,218.9,441.9C218.9,441.9,218.9,441.9,218.9,441.9z"/>
					</g>
				</g>
			</g>
		</g>
	</g>
</g>
</svg>
